<svg xmlns="http://www.w3.org/2000/svg" width="163.839" height="163.839" fill-rule="evenodd" clip-rule="evenodd" image-rendering="optimizeQuality" shape-rendering="geometricPrecision" text-rendering="geometricPrecision" viewBox="0 0 4335 4335" id="fly"><path fill="#1e96c8" d="M251 2034c-109-36-188-139-188-260 0-119 76-221 183-258 1077-379 2177-732 3229-1165 32-13 67-21 104-21 151 0 274 123 274 274 0 32-5 62-15 91L2677 3999l-1 3c-37 107-139 183-258 183-108 0-201-63-246-154l-664-1356-1256-641z"></path><path fill="#239dd1" d="M251 2034c-109-36-188-139-188-260 0-119 76-221 183-258 1077-379 2177-732 3229-1165 32-13 67-21 104-21 151 0 274 123 274 274 0 32-5 62-15 91L2677 3999l-1 3c-37 107-139 183-258 183-108 0-201-63-246-154l-664-1356-1256-641z"></path><path fill="#3dacdb" d="M251 2034c-109-36-188-139-188-260 0-119 76-221 183-258 1077-379 2177-732 3229-1165 32-13 67-21 104-21 77 0 146 32 196 83L1465 2654 251 2034z"></path></svg>