<?xml version="1.0" encoding="UTF-8"?>
<svg xmlns="http://www.w3.org/2000/svg" xmlns:xlink="http://www.w3.org/1999/xlink" viewBox="0 0 3891 844">
  <defs>
    <style>
      .cls-1 {
        fill: url(#_Безымянный_градиент_21-3);
      }

      .cls-1, .cls-2, .cls-3, .cls-4, .cls-5, .cls-6, .cls-7, .cls-8, .cls-9, .cls-10, .cls-11, .cls-12, .cls-13, .cls-14, .cls-15, .cls-16, .cls-17, .cls-18, .cls-19, .cls-20, .cls-21, .cls-22, .cls-23, .cls-24, .cls-25, .cls-26, .cls-27, .cls-28 {
        stroke-width: 0px;
      }

      .cls-29 {
        mask: url(#mask-10);
      }

      .cls-30, .cls-31, .cls-32, .cls-33, .cls-34 {
        isolation: isolate;
      }

      .cls-30, .cls-32 {
        font-family: CenturyGothic, 'Century Gothic';
        font-size: 230.44px;
      }

      .cls-2 {
        fill: url(#_Безымянный_градиент_21-6);
      }

      .cls-35 {
        mask: url(#mask-17);
      }

      .cls-3 {
        fill: url(#_Безымянный_градиент_21-5);
      }

      .cls-4 {
        fill: url(#_Безымянный_градиент_13-3);
      }

      .cls-36 {
        mask: url(#mask-2);
      }

      .cls-37 {
        mask: url(#mask-13);
      }

      .cls-6 {
        fill: url(#_Безымянный_градиент_21);
      }

      .cls-38 {
        mask: url(#mask-3);
      }

      .cls-7 {
        fill: url(#_Безымянный_градиент_21-12);
      }

      .cls-8 {
        fill: url(#_Безымянный_градиент_21-10);
      }

      .cls-9 {
        fill: #fce2a6;
      }

      .cls-9, .cls-14, .cls-26, .cls-28 {
        fill-rule: evenodd;
      }

      .cls-39 {
        mask: url(#mask-9);
      }

      .cls-40 {
        mask: url(#mask-12);
      }

      .cls-41 {
        mask: url(#mask-5);
      }

      .cls-10 {
        fill: url(#_Безымянный_градиент_21-14);
      }

      .cls-11 {
        fill: #fff;
      }

      .cls-12 {
        fill: url(#_Безымянный_градиент_13);
      }

      .cls-13 {
        fill: url(#_Безымянный_градиент_21-8);
      }

      .cls-14 {
        fill: #005b50;
      }

      .cls-15 {
        fill: url(#_Безымянный_градиент_22);
      }

      .cls-16 {
        fill: url(#_Безымянный_градиент_22-2);
      }

      .cls-17 {
        fill: url(#_Безымянный_градиент_13-4);
      }

      .cls-42 {
        mask: url(#mask-8);
      }

      .cls-43 {
        mask: url(#mask-4);
      }

      .cls-32, .cls-34 {
        stroke: #000;
        stroke-miterlimit: 10;
        stroke-width: .25px;
      }

      .cls-18 {
        fill: url(#_Безымянный_градиент_17);
      }

      .cls-19 {
        fill: url(#_Безымянный_градиент_21-9);
      }

      .cls-44 {
        mask: url(#mask-19);
      }

      .cls-20 {
        fill: url(#_Безымянный_градиент_21-4);
      }

      .cls-45 {
        mask: url(#mask-15);
      }

      .cls-21 {
        fill: url(#_Безымянный_градиент_21-11);
      }

      .cls-46 {
        mask: url(#mask-6);
      }

      .cls-22 {
        fill: url(#_Безымянный_градиент_21-13);
      }

      .cls-23 {
        fill: url(#_Безымянный_градиент_21-7);
      }

      .cls-47 {
        mask: url(#mask-16);
      }

      .cls-48 {
        mask: url(#mask-18);
      }

      .cls-24 {
        fill: url(#_Безымянный_градиент_13-2);
      }

      .cls-25 {
        fill: url(#_Безымянный_градиент_13-5);
      }

      .cls-49 {
        mask: url(#mask-1);
      }

      .cls-50 {
        mask: url(#mask);
      }

      .cls-33, .cls-34 {
        font-family: CenturyGothic-Bold, 'Century Gothic';
        font-size: 262.9px;
        font-weight: 700;
      }

      .cls-51 {
        mask: url(#mask-7);
      }

      .cls-26 {
        fill: #003780;
      }

      .cls-27 {
        fill: url(#_Безымянный_градиент_21-2);
      }

      .cls-28 {
        fill: #5ef9f6;
      }

      .cls-52 {
        mask: url(#mask-14);
      }

      .cls-53 {
        mask: url(#mask-11);
      }
    </style>
    <mask id="mask" x="358.77" y="362.82" width="134.43" height="59.97" maskUnits="userSpaceOnUse">
      <g id="mask0_1710_2882" data-name="mask0 1710 2882">
        <path class="cls-11" d="m444.22,373.38l-85.45,20.78c30.6,28.62,94.56,16.74,134.43-1.02-2.66-10.01-4.47-20.15-5.54-30.32l-43.44,10.57h0Z"/>
      </g>
    </mask>
    <linearGradient id="_Безымянный_градиент_21" data-name="Безымянный градиент 21" x1="435.95" y1="437.2" x2="387.88" y2="514.36" gradientTransform="translate(0 846) scale(1 -1)" gradientUnits="userSpaceOnUse">
      <stop offset="0" stop-color="#008a80"/>
      <stop offset="1" stop-color="#ebf855"/>
    </linearGradient>
    <mask id="mask-1" x="307.59" y="336.6" width="181.81" height="59.71" maskUnits="userSpaceOnUse">
      <g id="mask1_1710_2882" data-name="mask1 1710 2882">
        <path class="cls-11" d="m415.2,342.01l-107.61,8.21c35.5,46.09,133.03,37.87,181.81,19.53-1.93-10.99-2.97-22.08-3.27-33.14l-70.93,5.41h0Z"/>
      </g>
    </mask>
    <linearGradient id="_Безымянный_градиент_21-2" data-name="Безымянный градиент 21" x1="397.03" y1="479.17" x2="257.32" y2="442.43" xlink:href="#_Безымянный_градиент_21"/>
    <mask id="mask-2" x="245.05" y="278.41" width="242.07" height="80.94" maskUnits="userSpaceOnUse">
      <g id="mask2_1710_2882" data-name="mask2 1710 2882">
        <path class="cls-11" d="m381.54,293.61l-136.49-15.2c37.02,73,184.55,80.94,241.27,63.06-.57-12.1-.24-24.18.8-36.1l-105.58-11.76Z"/>
      </g>
    </mask>
    <linearGradient id="_Безымянный_градиент_21-3" data-name="Безымянный градиент 21" x1="338.93" y1="527.85" x2="200.85" y2="531.58" xlink:href="#_Безымянный_градиент_21"/>
    <mask id="mask-3" x="218.99" y="185.49" width="270.73" height="140.9" maskUnits="userSpaceOnUse">
      <g id="mask3_1710_2882" data-name="mask3 1710 2882">
        <path class="cls-11" d="m368.33,235.37l-149.35-49.88c25.55,96.86,210.05,140.9,267.61,126.75.61-9.54,1.68-18.99,3.12-28.27l-2.65-8.94-118.74-39.66h0Z"/>
      </g>
    </mask>
    <linearGradient id="_Безымянный_градиент_21-4" data-name="Безымянный градиент 21" x1="373.7" y1="586.14" x2="165.65" y2="628.27" xlink:href="#_Безымянный_градиент_21"/>
    <mask id="mask-4" x="251.35" y="100.82" width="243.02" height="188.27" maskUnits="userSpaceOnUse">
      <g id="mask4_1710_2882" data-name="mask4 1710 2882">
        <path class="cls-11" d="m386.25,182.05l-134.89-81.22c3.94,103.11,184.7,188.27,238.59,181.66,1.24-7.75,2.74-15.37,4.43-22.83l-.89-13.03-107.24-64.58h0Z"/>
      </g>
    </mask>
    <linearGradient id="_Безымянный_градиент_21-5" data-name="Безымянный градиент 21" x1="415.8" y1="602.49" x2="261.63" y2="776.82" xlink:href="#_Безымянный_градиент_21"/>
    <mask id="mask-5" x="292.89" y="46.59" width="211.28" height="210.44" maskUnits="userSpaceOnUse">
      <g id="mask5_1710_2882" data-name="mask5 1710 2882">
        <path class="cls-11" d="m417.62,145.76l-109.88-99.17c-14.85,95.66,136.02,206.45,187.23,210.44,2.7-11.54,5.84-22.64,9.2-33.15l-86.56-78.12h0Z"/>
      </g>
    </mask>
    <linearGradient id="_Безымянный_градиент_21-6" data-name="Безымянный градиент 21" x1="471.93" y1="605.5" x2="297.19" y2="816.67" xlink:href="#_Безымянный_градиент_21"/>
    <mask id="mask-6" x="349.53" y="17.74" width="164.17" height="213.45" maskUnits="userSpaceOnUse">
      <g id="mask6_1710_2882" data-name="mask6 1710 2882">
        <path class="cls-11" d="m457.12,122.61l-79.77-104.87c-27.82,78.58,77.67,195.1,124.55,213.45,3.69-12.22,7.73-23.71,11.8-34.21l-56.57-74.37h0Z"/>
      </g>
    </mask>
    <linearGradient id="_Безымянный_градиент_21-7" data-name="Безымянный градиент 21" x1="463.69" y1="622.1" x2="399.76" y2="820.24" xlink:href="#_Безымянный_градиент_21"/>
    <mask id="mask-7" x="433.9" y="94.82" width="121.48" height="393.88" maskUnits="userSpaceOnUse">
      <g id="mask7_1710_2882" data-name="mask7 1710 2882">
        <path class="cls-11" d="m507.6,371.39c-10.1-42.97-11.42-98.94,12.94-165.4l-84.57-111.17s7.83,70.56,38.49,119.22c0,0-40.57,85.78-19.88,172.39,8.59,35.98,27.75,72.1,64.78,102.27,12.34-4.7,24.39-11.2,36.02-19.96,0,0-33.13-35-47.78-97.34"/>
      </g>
    </mask>
    <linearGradient id="_Безымянный_градиент_22" data-name="Безымянный градиент 22" x1="479.82" y1="440.93" x2="505.76" y2="639.21" gradientTransform="translate(0 846) scale(1 -1)" gradientUnits="userSpaceOnUse">
      <stop offset="0" stop-color="#00478f"/>
      <stop offset="1" stop-color="#47eadf"/>
    </linearGradient>
    <mask id="mask-8" x="311.82" y="571.23" width="113.82" height="158.25" maskUnits="userSpaceOnUse">
      <g id="mask8_1710_2882" data-name="mask8 1710 2882">
        <path class="cls-11" d="m311.82,729.48c65.53-5.91,113.82-123.6,108.05-158.03-5.36.08-10.63,0-15.76-.22l-92.29,158.25Z"/>
      </g>
    </mask>
    <linearGradient id="_Безымянный_градиент_13" data-name="Безымянный градиент 13" x1="299.44" y1="115.09" x2="361.46" y2="187.19" gradientTransform="translate(0 846) scale(1 -1)" gradientUnits="userSpaceOnUse">
      <stop offset="0" stop-color="#ffce4b"/>
      <stop offset="1" stop-color="#f856bf"/>
    </linearGradient>
    <mask id="mask-9" x="346.84" y="565.34" width="88.22" height="205.23" maskUnits="userSpaceOnUse">
      <g id="mask9_1710_2882" data-name="mask9 1710 2882">
        <path class="cls-11" d="m372.51,659.26l-25.67,111.31c70.09-25.87,88.22-169.19,71.71-205.23-4.37,1.25-8.71,2.38-12.99,3.41l-20.14,34.54-12.91,55.97Z"/>
      </g>
    </mask>
    <linearGradient id="_Безымянный_градиент_13-2" data-name="Безымянный градиент 13" x1="339.36" y1="106.18" x2="396.14" y2="185.28" xlink:href="#_Безымянный_градиент_13"/>
    <mask id="mask-10" x="391.84" y="559.19" width="67.46" height="222.76" maskUnits="userSpaceOnUse">
      <g id="mask10_1710_2882" data-name="mask10 1710 2882">
        <path class="cls-11" d="m393.41,664.47l2.55,117.48c63.34-43.51,45.18-191,19.6-222.76-2.21,1.28-4.41,2.53-6.61,3.74l-17.11,29.34,1.57,72.21h0Z"/>
      </g>
    </mask>
    <linearGradient id="_Безымянный_градиент_13-3" data-name="Безымянный градиент 13" x1="376.76" y1="122.45" x2="428.02" y2="178.09" xlink:href="#_Безымянный_градиент_13"/>
    <mask id="mask-11" x="398.52" y="554.05" width="94.88" height="207.8" maskUnits="userSpaceOnUse">
      <g id="mask11_1710_2882" data-name="mask11 1710 2882">
        <path class="cls-11" d="m417.46,655l27.28,106.85c48.66-53.23.73-184.21-29.39-207.8-.88.83-1.77,1.65-2.65,2.47l-14.18,24.31,18.94,74.17h0Z"/>
      </g>
    </mask>
    <linearGradient id="_Безымянный_градиент_13-4" data-name="Безымянный градиент 13" x1="425.17" y1="138.48" x2="449.01" y2="195.34" xlink:href="#_Безымянный_градиент_13"/>
    <mask id="mask-12" x="400.71" y="550.26" width="100.91" height="166.36" maskUnits="userSpaceOnUse">
      <g id="mask12_1710_2882" data-name="mask12 1710 2882">
        <path class="cls-11" d="m429.08,633.3l42.03,83.32c30.51-52.87-32.99-152.36-62.19-166.36l-.51.75c2.62,3.16,4.28,5.5,4.28,5.5l-11.99,20.55,28.37,56.24h0Z"/>
      </g>
    </mask>
    <linearGradient id="_Безымянный_градиент_13-5" data-name="Безымянный градиент 13" x1="457.48" y1="169.7" x2="447.71" y2="235.94" xlink:href="#_Безымянный_градиент_13"/>
    <mask id="mask-13" x="148.12" y="325.4" width="293.67" height="224.52" maskUnits="userSpaceOnUse">
      <g id="mask13_1710_2882" data-name="mask13 1710 2882">
        <path class="cls-11" d="m296.38,405.92l-148.26,104.1c100.34,39.89,253.18-81.03,293.67-148.22-11.12-11.47-21.34-23.71-30.72-36.41l-114.68,80.52Z"/>
      </g>
    </mask>
    <linearGradient id="_Безымянный_градиент_21-8" data-name="Безымянный градиент 21" x1="268.96" y1="386.62" x2="129.13" y2="269.76" xlink:href="#_Безымянный_градиент_21"/>
    <mask id="mask-14" x="-.65" y="261.74" width="394.54" height="165.68" maskUnits="userSpaceOnUse">
      <g id="mask14_1710_2882" data-name="mask14 1710 2882">
        <path class="cls-11" d="m203.66,291.48L-.65,328.88c93.9,98.53,347.01,24.99,394.54-28.59-5.54-8.75-10.7-17.59-15.54-26.44l-12.26-12.11-162.44,29.74h0Z"/>
      </g>
    </mask>
    <linearGradient id="_Безымянный_градиент_21-9" data-name="Безымянный градиент 21" x1="282.95" y1="490.7" x2="-21.66" y2="528.54" xlink:href="#_Безымянный_градиент_21"/>
    <mask id="mask-15" x="7.78" y="226.03" width="368.87" height="107.57" maskUnits="userSpaceOnUse">
      <g id="mask15_1710_2882" data-name="mask15 1710 2882">
        <path class="cls-11" d="m203.01,228.2l-195.23-2.17c68.81,107.57,314.73,85.46,368.87,44.71-7.41-13.77-13.99-27.5-19.83-40.82l-153.8-1.71h0Z"/>
      </g>
    </mask>
    <linearGradient id="_Безымянный_градиент_21-10" data-name="Безымянный градиент 21" x1="335.04" y1="543.67" x2="-22.12" y2="599.99" xlink:href="#_Безымянный_градиент_21"/>
    <linearGradient id="_Безымянный_градиент_17" data-name="Безымянный градиент 17" x1="547.85" y1="235.63" x2="558.5" y2="524.01" gradientTransform="translate(0 846) scale(1 -1)" gradientUnits="userSpaceOnUse">
      <stop offset="0" stop-color="#003780"/>
      <stop offset="1" stop-color="#d820d2"/>
    </linearGradient>
    <mask id="mask-16" x="361.63" y="381.75" width="132.06" height="145.1" maskUnits="userSpaceOnUse">
      <g id="mask16_1710_2882" data-name="mask16 1710 2882">
        <path class="cls-11" d="m428,430.11l-66.38,95.14c55.25,1.6,108.14-65.98,132.06-118.34-11.37-7.58-22-16.03-31.94-25.16l-33.74,48.36Z"/>
      </g>
    </mask>
    <linearGradient id="_Безымянный_градиент_21-11" data-name="Безымянный градиент 21" x1="453.83" y1="383.88" x2="338.94" y2="418.22" xlink:href="#_Безымянный_градиент_21"/>
    <mask id="mask-17" x="272.65" y="357.15" width="196.86" height="183.9" maskUnits="userSpaceOnUse">
      <g id="mask17_1710_2882" data-name="mask17 1710 2882">
        <path class="cls-11" d="m371.92,424.41l-99.27,102.04c75.35,14.6,164.63-78.67,196.86-139.38-11.5-9.19-22.21-19.24-32.17-29.92l-65.43,67.26h0Z"/>
      </g>
    </mask>
    <linearGradient id="_Безымянный_градиент_21-12" data-name="Безымянный градиент 21" x1="365.22" y1="388.17" x2="259.09" y2="229.89" xlink:href="#_Безымянный_градиент_21"/>
    <mask id="mask-18" x="41.24" y="295.44" width="375.31" height="218.94" maskUnits="userSpaceOnUse">
      <g id="mask18_1710_2882" data-name="mask18 1710 2882">
        <path class="cls-11" d="m232.49,359.86l-191.25,81.02c109.81,73.5,330.74-43.99,375.31-108.23-7.72-9.96-14.91-20.24-21.59-30.68l-10.42-6.53-152.06,64.42h0Z"/>
      </g>
    </mask>
    <linearGradient id="_Безымянный_градиент_21-13" data-name="Безымянный градиент 21" x1="262.66" y1="460.57" x2="20.11" y2="320.66" xlink:href="#_Безымянный_градиент_21"/>
    <mask id="mask-19" x="51.44" y="136.75" width="309.5" height="125.17" maskUnits="userSpaceOnUse">
      <g id="mask19_1710_2882" data-name="mask19 1710 2882">
        <path class="cls-11" d="m221.88,170.84l-170.44-34.09c41.07,102,247.12,125.17,309.49,102.39-7.02-15.31-13.05-30.2-18.19-44.13l-120.87-24.17h0Z"/>
      </g>
    </mask>
    <linearGradient id="_Безымянный_градиент_21-14" data-name="Безымянный градиент 21" x1="316.91" y1="580.95" x2="80.75" y2="721.13" xlink:href="#_Безымянный_градиент_21"/>
    <linearGradient id="_Безымянный_градиент_22-2" data-name="Безымянный градиент 22" x1="489.25" y1="416.43" x2="343.28" y2="634.58" xlink:href="#_Безымянный_градиент_22"/>
  </defs>
  <g id="_Слой_2_копия_" data-name=" Слой 2 копия ">
    <g class="cls-31">
      <text class="cls-33" transform="translate(1113.15 373.43)"><tspan x="0" y="0">WORK FROM HOME</tspan></text>
      <text class="cls-34" transform="translate(1113.15 373.43)"><tspan x="0" y="0">WORK FROM HOME</tspan></text>
    </g>
    <g class="cls-31">
      <text class="cls-30" transform="translate(820.65 694.51)"><tspan x="0" y="0">WORK FLEXIBLY - LIVE FULLY</tspan></text>
      <text class="cls-32" transform="translate(820.65 694.51)"><tspan x="0" y="0">WORK FLEXIBLY - LIVE FULLY</tspan></text>
    </g>
  </g>
  <g id="_Слой_2" data-name="Слой 2">
    <g class="cls-50">
      <path class="cls-6" d="m493.2,362.82h-134.43v59.97h134.43v-59.97Z"/>
    </g>
    <path class="cls-14" d="m444.22,373.38l-85.45,20.78s72.86,11.96,130.18-21.34c-.51-3.33-.94-6.66-1.29-10l-43.44,10.57h0Z"/>
    <g class="cls-49">
      <path class="cls-27" d="m489.4,336.6h-181.81v59.71h181.81v-59.71Z"/>
    </g>
    <g class="cls-36">
      <path class="cls-1" d="m487.12,278.41h-242.07v80.94h242.07v-80.94Z"/>
    </g>
    <g class="cls-38">
      <path class="cls-20" d="m489.72,185.49H218.99v140.9h270.73v-140.9Z"/>
    </g>
    <g class="cls-43">
      <path class="cls-3" d="m494.38,100.82h-243.02v188.27h243.02V100.82Z"/>
    </g>
    <g class="cls-41">
      <path class="cls-2" d="m504.18,46.59h-211.28v210.44h211.28V46.59Z"/>
    </g>
    <g class="cls-46">
      <path class="cls-23" d="m513.7,17.74h-164.17v213.45h164.17V17.74Z"/>
    </g>
    <g class="cls-51">
      <path class="cls-15" d="m555.38,94.82h-121.48v393.88h121.48V94.82Z"/>
    </g>
    <path class="cls-28" d="m507.6,371.39c-10.1-42.97-11.42-98.94,12.94-165.4l-84.57-111.17s40.88,61.63,71.54,110.29c0,0-40.57,85.78-19.88,172.39,8.13,34.05,25.73,68.22,58.98,97.37,2.95-1.91,5.87-3.95,8.76-6.14,0,0-33.13-35-47.78-97.34"/>
    <path class="cls-14" d="m307.74,46.59s48.79,116.33,163.72,174.45c1.45-3.58,2.49-5.88,2.86-6.68-24.27-18.82-52.71-49.53-73.32-83.6l-93.26-84.17Z"/>
    <path class="cls-14" d="m462.42,246.76c-32.87-15.42-75.88-46.62-108.37-84.1l-102.7-61.84s102.45,120.21,206.93,160.76c1.35-5.3,2.75-10.26,4.13-14.82Z"/>
    <path class="cls-14" d="m218.99,185.49s114.5,86.85,233.24,105.42c.66-4.21,1.4-8.32,2.19-12.29-31.85-7.86-73.92-26.3-111.5-51.74l-123.93-41.39h0Z"/>
    <path class="cls-14" d="m245.05,278.41s75.93,54.86,203.91,44.8c.13-2.92.3-5.81.51-8.66-32.17-1.66-74.29-10.42-113.87-26.05l-90.55-10.08h0Z"/>
    <path class="cls-14" d="m307.59,350.21s71.87,20.37,142.59,10.92c-.49-4.31-.84-8.59-1.08-12.84-24.03,2.21-52.78,1.65-81.25-2.68l-60.26,4.59h0Z"/>
    <g class="cls-42">
      <path class="cls-12" d="m425.64,571.23h-113.82v158.25h113.82v-158.25Z"/>
    </g>
    <g class="cls-39">
      <path class="cls-24" d="m435.06,565.34h-88.22v205.23h88.22v-205.23Z"/>
    </g>
    <g class="cls-29">
      <path class="cls-4" d="m459.31,559.19h-67.46v222.76h67.46v-222.76Z"/>
    </g>
    <g class="cls-53">
      <path class="cls-17" d="m493.4,554.05h-94.88v207.8h94.88v-207.8Z"/>
    </g>
    <g class="cls-40">
      <path class="cls-25" d="m501.62,550.26h-100.91v166.36h100.91v-166.36Z"/>
    </g>
    <g class="cls-37">
      <path class="cls-13" d="m441.78,325.4H148.12v224.52h293.67v-224.52Z"/>
    </g>
    <g class="cls-52">
      <path class="cls-19" d="m393.89,261.74H-.65v165.68h394.54v-165.68Z"/>
    </g>
    <g class="cls-45">
      <path class="cls-8" d="m376.65,226.03H7.78v107.57h368.87v-107.57Z"/>
    </g>
    <path class="cls-18" d="m621.17,427.4s57.22-6.02,94.55,34.33c0,0-5.42-34.93-19.87-45.17,24.92-64.87-50.68-117.51-119.38-106.18-109.77,18.11-199.76,263.78-191.99,354.3,73.78-68.27,210.59-109.63,236.68-237.28"/>
    <path class="cls-26" d="m399.75,558.71c32.12-67.53,122.25-79.45,170.98-80.77-38.28-3.09-71.37-14.41-99.82-30.5-7.01-3.96-13.73-8.22-20.18-12.71-.37-.25-.73-.51-1.09-.76-2.03,3.8-4.03,7.64-5.99,11.51-9.79,19.39-18.61,39.62-26.27,59.83-6.84,18.03-12.75,36.04-17.63,53.4Z"/>
    <path class="cls-9" d="m488.95,372.82s106.65-67.15,208.64-1.14c-13.59-42.02-69.31-69.85-121.12-61.3-31.4,5.18-61.18,28.98-87.52,62.45Z"/>
    <g class="cls-47">
      <path class="cls-21" d="m493.69,381.75h-132.06v145.1h132.06v-145.1Z"/>
    </g>
    <path class="cls-14" d="m428,430.11l-66.38,95.14s82.5-51.77,110.13-134.74c-3.41-2.84-6.75-5.77-10.01-8.76l-33.74,48.36h0Z"/>
    <g class="cls-35">
      <path class="cls-7" d="m469.51,357.15h-196.86v183.9h196.86v-183.9Z"/>
    </g>
    <g class="cls-48">
      <path class="cls-22" d="m416.55,295.44H41.24v218.94h375.31v-218.94Z"/>
    </g>
    <g class="cls-44">
      <path class="cls-10" d="m360.94,136.75H51.44v125.17h309.49v-125.17Z"/>
    </g>
    <path class="cls-5" d="m488.95,372.82c-47.5-33.69-97.65-87.89-131.57-174.89l-180.67-36.13s69.33,62.96,142.13,84.32c0,0,34.75,120.25,130.8,187.85,39.9,28.08,90.38,47.08,153.33,44.61,8.1-15.43,14.35-32.37,18.2-51.18,0,0-63.31-5.7-132.22-54.57"/>
    <path class="cls-16" d="m488.95,372.82c-47.5-33.69-97.65-87.89-131.57-174.89l-180.67-36.13s69.33,62.96,142.13,84.32c0,0,34.75,120.25,130.8,187.85,39.9,28.08,90.38,47.08,153.33,44.61,8.1-15.43,14.35-32.37,18.2-51.18,0,0-63.31-5.7-132.22-54.57"/>
    <path class="cls-28" d="m488.95,372.82c-47.5-33.69-97.65-87.89-131.57-174.89l-180.67-36.13s94.22,25.28,167.02,46.64c0,0,34.75,120.24,130.8,187.85,37.76,26.58,85,45.02,143.33,44.82,1.25-4.46,2.36-9.03,3.31-13.72,0,0-63.31-5.7-132.22-54.57Z"/>
    <path class="cls-14" d="m7.78,226.03s149.79,72.47,314.2,29.63c-1.69-4.81-2.67-7.99-3-9.1-40.43,2.57-95.37-2.98-145.48-18.69l-165.71-1.85Z"/>
    <path class="cls-14" d="m335.48,289c-45.98,13.44-115.74,20.13-180.58,11.41L-.65,328.88s206.25,29.48,344.98-21.62c-3.29-6.42-6.24-12.55-8.85-18.27Z"/>
    <path class="cls-14" d="m41.24,440.88s189.05-14.04,322.71-99.32c-3.02-4.75-5.88-9.45-8.56-14.07-38.37,20.02-96.07,38.5-155.45,46.15l-158.7,67.23h0Z"/>
    <path class="cls-14" d="m148.12,510.03s122.99-12.02,240.77-133.67c-2.42-3-4.78-6.01-7.06-9.02-33.27,26.44-82.57,54.54-135.36,73.63l-98.36,69.06Z"/>
    <path class="cls-14" d="m272.65,526.45s88.86-42.58,150.56-113.66c-4.24-3.84-8.34-7.76-12.28-11.75-21.84,23.17-50.77,47.7-82.69,68.27l-55.59,57.14h0Z"/>
  </g>
</svg>